<?xml version="1.0" encoding="UTF-8"?><svg id="Layer_1" xmlns="http://www.w3.org/2000/svg" viewBox="0 0 1080 1080"><defs><style>.cls-1{fill:#ccb5d5;}.cls-2{fill:#502556;}.cls-3{fill:#905799;}</style></defs><path class="cls-2" d="M635.63,330.74c-2.08.64-4.84.7-6.01,1.79.17-.77.52-1.38.99-1.88.87-.93,2.14-1.46,3.45-1.83h.01c.53.63,1.04,1.28,1.56,1.92Z"/><path class="cls-2" d="M653.71,627.41c.99-3.76,12.65-31.35,14.35-31.74,7.06,2.1,16.55,7.63,26.14,11.72h.01v-110.29c0-32.05-5.67-62.77-16.09-91.21-14.43,5.9-29.08,13.03-43.22,20.98-14.11,7.96-27.7,16.73-39.97,25.9-.01-.01-.02-.01-.03-.02-.26-.19-.54-.38-.85-.58-2.51-1.63-6.29-3.46-10.31-5.09-.17-.06-.34-.14-.5-.2-.06-.02-.1-.04-.16-.05,15.53-12.19,31.61-23.82,48.88-33.47,7.01-3.92,14.95-6.79,21.59-11.39.3-.07.62.06.9,0,2.34-.56,5.15-1.42,6.32-3.62,4.42-1,8.72-2.26,12.95-3.67-2.18-5.23-4.52-10.37-7.03-15.42-.01,0-.01.01-.01.01-.23.33-.42.71-.46,1.17-.23-.06-.47.01-.71.01h-.01c-.06,0-.12,0-.19-.01-3.02-.81-5.51-2.2-8.13-2.72-.29-.06-.6.04-.89,0-.46-1.56-1.41-1.53-2.73-1.81-.29-.07-.64.08-.89,0-1.57-1.72-4.12-3.05-6.32-3.61-.29-.08-.64.08-.91,0-1.33-1.69-4.24-1.69-4.51-3.96-.02-.17-.02-.34-.01-.55,1.59-.14,3.3-1.49,4.57-2.26.31-.21.61-.37.86-.45,1.34-.51,5.57-2.1,10.47-3.88h.01c-2.7-4.52-5.53-8.95-8.48-13.29-5.08,1.53-11.83,4.61-15.27,6.16-26.67,12.04-52.18,31.34-75.27,48.94-.46.36-.96.76-1.46,1.19-1.31,1.15-2.74,2.51-4.18,3.87-1.44,1.36-2.92,2.73-4.35,3.88-.1.09-.19.17-.28.25-.82.63-1.61,1.2-2.38,1.65.01.06.01.11.01.17-.04,1.1-1.67,2.75-2.91,3.67q-.01.01-.02.01c-.49.36-.91.61-1.16.67-.93.21.28-2.24-1.33-1.8.13.78.12,1.39,0,1.84-.17.64-.56,1.01-1.09,1.19-.85.27-2.09.05-3.44-.34.73-.83.45-3.51.71-4.76.05-.28.14-.49.28-.57.59-.43,1.83.03,2.69-.02.55-.04.95-.29.95-1.1,0-.21-.04-.47-.1-.77.54.01,1.07-.01,1.61,0h.19c.13-.17.83-.85,1.34-1.36.19-.18.37-.35.46-.45.48-.44,1.61-.75,2.52-1.32.23-.14.43-.29.62-.48,2.64-2.53,5.05-5.31,7.83-7.66.28-.25.54-.49.82-.69.28-.24.57-.47.86-.68,2.48-3.34,8.39-8.33,11.73-11.31,1.92-1.7,3.94-3.43,6.02-5.17.48-.4.96-.8,1.44-1.2,19.41-16,44.91-32.94,67.35-41.22.14-.06.31-.12.45-.17-1.11-1.53-2.25-3.04-3.39-4.54-11.27,3.5-19.74,10.47-30.89,15.14-.11.05-.17.25-.31.5-.16.32-.42.7-1.03.96-.08.04-.18.08-.27.1-2.36.75-6.25,1.75-6.78-1.02-.05-.25-.06-.54-.06-.85.82.11,1.41.14,1.84.06,1.32-.2.98-1.35.87-3.68-1.92,1.02-3.14-.5-3.83,1.08-.08.19-.15.42-.22.73-.13-.18-.27-.33-.37-.47-1.54-1.79-1.93-1.32-2.13-.35-.17.87-.21,2.14-.8,2.5-.16.09-.33.17-.52.21-1.61.42-3.81-1-3.66.58.04.44.25,1.08.7,2.05-.32.21-.63.42-.97.65-4.49,3.06-10.38,7.56-15.29,11.1-2.82,2.01-5.59,4.28-8.38,6.55-.69.55-1.37,1.12-2.05,1.67-4.5,3.64-9.07,7.2-13.96,9.83l-14.45,10.86c-.4-1.71.94-2.16,1.79-3.17,2.27-2.69,5.61-6.01,8.13-8.59,2.01-2.04,4.14-4.21,6.26-6.33h.08c-.01,0-.03-.02-.04-.04v-.01c1.84-1.83,3.66-3.65,5.46-5.36,2.38-2.28,4.99-4.69,7.71-6.95,2.31-1.92,4.69-3.75,7.04-5.3.2-.14.4-.27.6-.4,1.93-2.22,4.41-4.54,7.28-6.94,12.25-10.18,31.67-21.37,47.4-28.35-6.23-7.15-12.85-13.97-19.83-20.41l-.01-.01c-.42-.39-.86-.79-1.29-1.18l-.05-.05c-7.12-6.5-14.61-12.63-22.42-18.33-2.05-1.5-4.14-2.97-6.23-4.41v-.01c-10.18-6.99-20.87-13.3-32-18.84-5.02-2.51-10.13-4.85-15.32-7.04h-.02c-2.86-1.2-5.75-2.36-8.65-3.46h-.01c-29.28-11.12-61.03-17.21-94.22-17.21h-14.81c-34.28,0-62.06,27.79-62.06,62.07v392.36c6.48-4.54,14.22-6.44,21.52-6.44,6.69,0,12.53,1.51,16.2,3.03l-2.6,14.7c-2.81-1.3-6.7-2.38-12.1-2.38-16.21,0-20.31,14.27-20.31,30.26v5.62h25.28v6.21h313.06c.73,0,1.33-.59,1.33-1.33v-51.33l-.01-.01c-2.79-3.47-5.66-6.86-8.6-10.17l-1.81-.9-.35,3.34-.11,1.18c-.02-.04-.04-.06-.08-.09-2.25-2.89-5.46-4.71-8.07-7.11-.48-.44-.96-.89-1.43-1.32-7.31-6.88-13.37-13.62-21.69-19.85-5.82-4.37-12.2-7.86-17.96-12.28-.3,0-.63.04-.92,0-1.33-.23-2.26-.3-2.7-1.81-21.63-6.6-30-14.34-55.11-9.04-.4.09-1.43.44-2.72.9q0,.01-.01.01c-1.42.49-3.16,1.13-4.72,1.65-2.18.73-4.05,1.29-4.28,1.06-.54-2.33.63-1.58,1.69-2.33,2.43-1.74,4.02-2.01,6.43-3.09,4.97-2.22,5.84-3.18,11.74-3.62,6.13-3.01,13.55-1.69,19.88,0,8.87.77,20.92,5.66,28,10.85l.45-.9c1.74,2.23,3.91,2.42,5.88,4.51.29.31.62.59.9.9,2.8-.13,8.94,5.32,11.31,7.22.3.23,1.18,1.04,1.93,1.39.39.19.77.25,1.01-.01.1-.1.18-.25.21-.46-.13-.2-.25-.43-.35-.67-.68-1.8-.68-4.98-.37-8.16.31-3.22.92-6.44,1.36-8.15ZM600.29,390.82c3.73-2.97,32.32-21.03,34.31-19.41l-11.35,30.67c-.14-.06-.33-.12-.55-.23-4.28-1.83-21.97-9.46-22.41-10.97v-.06ZM576.77,407.96c.36-.3.98-.82,1.77-1.48.89-.73,2-1.65,3.21-2.64.44-.37.89-.74,1.36-1.11,4.38-3.56,9.46-7.56,10.4-7.84,2.1-.61,1.11.85.97,1.88-1.12,8.61-4.18,19.8-5.96,28.83-.42.7-.65,1.18-.95,1.46-.14.14-.31.23-.53.26-.33.07-.77.04-1.42-.07-2.8-.47-14.64-6.24-16.02-5.25-.05.22-.09.45-.14.66-.7,3.69-1.92,7.42-2.61,11.07-.25,1.28-.66,5.26-1.16,8.95v.02c-.43-.01-.82,0-1.21.05-2.23.14-3.99.74-6.23,1.2l.87,1.01.93.05h.01l.04.04.19.23,3.35.15.84.04.14.01h.01c.17.86.24,1.56.25,2.13-.27,1.21-.55,2.05-.84,2.27l-.47-.08-.32-.05-18.99-3.38c-.41-.37-1.57-.54-1.61-1.31-.15-3.65,29.35-33.01,34.12-37.1Z"/><path class="cls-1" d="M399.464,351.207c-.072-.751.181-2.325,0-2.515-.262-5.563,7.915-.706,11.706-1.872,1.981-.615,8.838-7.337,9.254-6.939.443,10.385,2.678,13.253,11.787,18.246-8.865,5.88-12.665,3.067-13.135,15.695-1.194.715-5.527-1.61-6.504-2.488-1.122-.995.28-4.297-5.247-5.03-3.745-.498-6.929.57-10.475,1.248-1.239-1.203,10.647-13.235,2.614-16.346Z"/><path class="cls-1" d="M415.792,415c-.027-.416.036-.841,0-1.257-.027-.353-.091-.941,0-1.258,2.198-7.128,3.528-5.844-1.312-13.841,3.175-.525,6.712,1.864,9.571,1.104,3.347-.896,3.419-6.73,7.463-6.133-2.732,9.887,8.042,9.833,9.182,11.335,2.171,2.859-6.106,4.035-7.237,6.242-1.42,2.777.624,6.776-2.587,8.82-4.125-5.744-6.595-4.424-12.457-5.012-.859-.081-1.755.054-2.623,0Z"/><path class="cls-3" d="M624.93,519.01c-.69.09-1.37.22-2.03.38-24.42,5.65-25.39,45.05,2.2,49.56,2.69.44,5.19.55,7.5.39,31.3-2.29,29.98-55.86-7.67-50.33ZM631.82,563.85c-.28.03-.55.04-.83.05-6.24.4-11.14-1.71-14.61-5.15-6-5.91-7.76-15.75-4.81-23.44,0-.01,0-.02.01-.02,1.93-5.02,5.86-9.12,11.93-10.59.45-.11.93-.2,1.4-.29,30.02-5.08,32.58,36.97,6.91,39.44Z"/><path class="cls-2" d="M633.632,551.178c-11.995,6.142-17.45-14.402-5.057-15.985,8.793-1.121,13.415,11.697,5.057,15.985Z"/><path class="cls-3" d="M641,531.38c-.25-.23-.51-.45-.76-.67-4.79-4.02-10.05-4.73-14.69-3.35-10.85,3.19-18.3,17.76-8.2,28.12,3.72,3.83,7.94,5.37,12.01,5.28,5.87-.1,11.39-3.62,14.55-8.52,3.91-6.07,4.22-14.28-2.91-20.86ZM638.39,552.8c-2.7,2.6-5.68,3.6-8.51,3.45-3.64-.18-7.03-2.22-9.37-5.11-1.86-2.32-3.03-5.18-3.07-8.06-.05-3.17,1.26-6.39,4.53-8.98,1.27-1.01,2.57-1.71,3.86-2.18,11.33-4.01,22.06,11.72,12.56,20.88Z"/><path class="cls-1" d="M480.644,322.249c-.211-.623-.507-1.215-.953-1.746-.234-.278-.07-.634.178-.751-.291-1.113-.549-2.48-.639-3.911-.193-3.072.438-5.624,1.019-7.322-1.502-1.682-2.515-5.464-2.614-7.553-.145-2.958.19-2.804,1.312-5.03,2.714-5.419,7.626-7.545,11.796-11.326.896-.814,2.497-1.122,2.623-1.258,1.022-1.158,3.311-6.251,1.303-7.553-2.985-.19-6.242.299-9.173,0-3.654-.371-14.049-1.782-16.482-3.673-2.307-1.809-7.327-14.682-9.67-18.4-.986-1.565-.733-3.057-3.329-3.103-1.284,0-8.684,20.481-11.136,22.046-1.312.832-11.941,2.868-14.438,3.13-3.338.362-7.083-.244-10.485,0-.063.814-1.755,1.673-.715,3.709,1.52,2.958,8.494,8.467,11.199,11.389,3.175-.733,2.325,2.243,2.623,2.515.317.308,3.465-.534,2.624,2.524,2.035,1.52.045,3.419,0,5.03-.136,4.632.941,10.114-2.624,13.84.009.416-.027.841,0,1.258.172,3.157-1.33,5.817,2.624,5.03,5.672-1.457,15.351-9.743,20.417-10.05,5.247-.308,17.631,8.503,23.936,10.982.212.081.406.152.604.224Z"/><path class="cls-3" d="M757.86,528.75c-6.84-5.01-11.51-12.6-13.46-20.82-.5-2.12-.82-4.29-.94-6.47-.07-.94-.09-1.89-.06-2.83,0-.19,0-.39.01-.58.96.29,1.75.15,2.45-.1.04-.01.06-.02.08-.04h.01c.48-.17.92-.4,1.37-.57.22.14.4.3.59.45,2.99-1.98,5.98-3.98,8.97-5.96l-2.64.53c-.31.27-.57.74-.89.91-2.31,1.27-3.9,3.01-6.77,2.88-.45-.3-.91-.58-1.37-.83-.14-.07-.33-.08-.51-.06-.16.01-.32.04-.48.06-.6.08-1.11.06-.81-1.34l8.11-13.09.02-.02v-.04c.2-5.57,3.66-13.41,4.92-20.4.17-.92.29-1.83.37-2.71.66-7.38.19-14.64-1.14-21.8v-.08c-.56-3-1.27-5.98-2.11-8.96-.79-2.8-5.53-16.59-7.47-17.38-.09-.04-.21-.05-.34-.05-.15-.34-.28-.69-.4-1.03q-.01-.01-.01-.02c-1.56-4.58-.48-9.66-1.35-14.17q0-.02-.01-.03t-.01-.02c0-.01,0-.03-.01-.04v-.01c-.31-1.66-.91-3.24-2.02-4.67-.86-1.11-2.96-1.99-3.85-3.48,0-.01-.01-.01-.01-.02v-.01c-.05-.05-.08-.12-.12-.18-.01-.02-.02-.04-.02-.07v-.03c-.06-.24.14-.6.02-.81-2.62-5.25-1.96-3.88-5.42-8.13-.27-.33-.77-.66-.9-.91-.06-.13-.15-.28-.2-.44v-.01c-.01-.02-.02-.04-.02-.06-.19-.51-.33-1.12-.48-1.78-.21-.97-.47-2.02-.94-2.84-2.72-4.73-5.45-8.9-10.1-12.03-2.48-8.36-3.1-4.46-7.72-8.09-1.9-1.51-4.63-6.5-6.72-8.64-1.62-1.68-8.69-7.7-11.01-10.49-.1-.11-.18-.22-.26-.32-.32-.4-.49-.71-.49-.89,0-.43.3-.79.54-1.02.19-.18.35-.3.36-.35.05-.6-.07-1.23,0-1.81.76-6.35,1.24-8.79.04-13.78,0-.02-.01-.05-.02-.06-.23-1-.54-2.08-.92-3.33-2.28-7.42-6.1-12.44-11.71-17.66-1.21-1.13-3.03-1.22-4.08-2.24-2.62-2.57-3.39-10.1-8.16-14.42-4.89-4.45-8.7-3.43-13.35-5.63-3.44-1.62-6.49-5.88-11.16-7.81-2.64-1.09-5.72-1.2-7.83-2.14-1.47-.67-6.69-6.93-9.36-8.68-11.41-7.46-27.61-8.85-38.92-.38-2.07,1.55-3.02,4.57-5.23,4.79-2.04.2-11.11-4.14-15.32-4.54-4.74-.45-13.3,2-15.15,1.62-3.27-.69-6.65-6.13-13.85-6.95-6.55-.74-12.04.41-16.67,2.97h-.01c-6.31,3.47-11.02,9.59-14.56,17.09-.99,2.1-1.26,5.64-2.13,6.91-1,1.51-8.35,5.6-11.11,9.67-3.17,4.67-3.22,9.32-5.21,13.76-1.27,2.83-3.81,4.26-5.27,6.46-2.43,3.67-3.78,7.56-4.18,11.49-.09.79-.13,1.59-.14,2.37.31,1.93.49,3.24.58,4.13.96,1.61,1.1,3.5,1.11,5.38,1.12,3.01,2.74,5.91,4.82,8.58-.2.14-.4.27-.59.39-.34.23-.64.46-.97.7-5.46,4.12-8.46,10-9.03,16.02-.01.01-.01.02-.01.03-.28,3.01.04,6.07.96,8.95,1.23,3.88,3.54,7.48,6.91,10.28,1.34,1.14,2.86,2.14,4.54,2.99,7.71-1.78,6.48,4.18,8.86,8.77,4.2,8.12,13.21,10.96,21.93,8.92,3.77-.88,8.21-4.95,11.68-6.84.04-.03.41.62.89.4,1.22-.59,1.71-2.43,3.2-2.27h.01c.05-.01.09,0,.15.01.08.02.18.03.26.06v6.31c-.14.38-.27.74-.42,1.09-2.55,6.34-6.57,9.55-7.47,17.81,0,0-.01,0-.01.02-.05.49-.1,1-.12,1.55-.29,5.28,1.85,9.81,1.73,14.28-.03,1.15-.2,2.24-.45,3.32-.47,2.14-1.17,4.24-1.4,6.77-.1,1.07-.12,2.23.01,3.51.07.69.18,1.36.32,2.01.13.53.29,1.04.44,1.54v.02l.01.02c.2.59.42,1.17.67,1.72.77,1.78,1.76,3.34,2.69,4.76.18.28.36.55.54.81.06.17.14.34.25.47.01.02.03.04.04.05l.11.11.01.01c.51.78.97,1.53,1.3,2.25.17.34.31.67.43.99.1.25.17.52.24.78.06.24.1.49.13.74.01.01.01.02.01.02v.01c.33,2.1.13,4.35.04,6.62-.01.45-.02.89-.02,1.35v.02c0,1.2.07,2.42.31,3.6.04.19.09.38.13.57.09.34.21.67.32,1.02q.01.01.01.02c.13.34.27.69.44,1.04-.05.08-.09.14-.14.19-.05.06-.1.1-.15.13-.18.11-.49.19-.9.25-.16.04-.33.06-.52.08-.52.04-1.12.08-1.76.12-.42.02-.84.04-1.26.07h-.04c-.75.05-1.5.11-2.15.22-.11.03-.23.04-.33.07h-.05c-.01,0-.05.01-.07.01-.72.14-1.29.34-1.59.64-.05.04-.1.1-.13.15-.88,1.42.58,4.9-.35,5.97-.16.19-.61.27-1.22.38-1.02.17-2.44.39-3.52,1.15-.85.58-1.5,1.49-1.57,2.98-.17,3.64,5.17,12.24,6.19,16.71.36,1.59,1.36,4.26-1.03,4.16-.18,0-.39-.02-.62-.07-.15-.18-.29-.35-.44-.54l-.01-.01c-.33-.41-.65-.82-.96-1.26-1.56-2.12-2.92-4.46-4.12-6.72-7.43-14.01-17.59-37.01-23.3-51.87-1.96-5.1-6.6-17.38-6.29-24.79.02-.02.02-.04,0-.06.08-1.63.39-3.04,1.04-4.06,1.81-2.92,11.51-5.42,12.43-6.32l.08-.07v-.01c2.88-2.96-4.82-2.55-8.63-1.77-.62.13-1.13.27-1.49.41h-.01c-.19.07-.34.14-.42.21-.03-.04-.06-.07-.07-.1-.06-.07-.08-.13-.11-.19-.02-.06-.03-.1-.03-.15-.27-1.95,6.31-6.65,8.85-10.14.73-1.01,1.13-1.92.91-2.64-.06-.23-.19-.43-.39-.62-.3-.29-.64-.46-1.01-.55-.65-.15-1.37-.01-2.17.34h-.01c-.09.03-.17.07-.26.12-3.79,1.83-8.55,7.97-10.5,7.82-.14-.01-.25-.05-.37-.13-.03-.01-.06-.04-.09-.06v-.17c.04-2.79,3.09-7.59,3.71-10.97v-.02c.18-1.09.12-2.03-.39-2.71-1.78-1.38-3.1-1.45-4.14-.77h-.01c-.04.02-.06.04-.1.07-2.22,1.59-3.07,6.67-4.3,9.54-1.15,2.6-1.69,8.99-4.81,9.92-.01,0-.01.01-.02.01h-.01c-.38.12-.8.18-1.25.18-4.66.18-12.99-4.08-17.91-1.82-.33.13-.63.32-.92.51.04.1.06.2.09.3v.01c.33,1.37-.06,3.39,1.21,4.74.23.03.46.06.66.08,5.62.83,4.96,1.07,9.84,3.68,2.83,1.53,4.29,2.33,5.33,3.86.74,1.08,1.25,2.54,1.91,4.91,3.33,11.97,6.29,25.2,9.1,38.43l.03.13c2.4,11.24,4.69,22.47,7,32.93.78,3.6.48,3.18,1.41,6.25,1.22,4,1.13,6.33.46,7.85-1.28,2.87-4.66,2.84-5.33,5.88-.08.34-.1.66-.08.95v.01c.23,3.42,6.37,3.47,4.87,8.64-.02.05-.04.12-.08.21-1.31,2.33-14.72,18.12-17.3,22.16-2.74,4.26-8.67,13.56-9.95,17.52-8.75,27.11,3.11,75.94,11.8,103.18.75,2.34,1.4,4.11,2.04,5.48.42.91.85,1.63,1.28,2.22.02.04.05.07.07.1,2.45,3.24,5.53,2.3,13.72,5.59-.72,11.11,4.03,24.23,2.61,35.1-.35,2.74-.95,4.9-2.22,6.28v.01c-1,1.09-2.39,1.72-4.39,1.83l-1.31,2.52c.19.62-2.32.99-2.63,1.27-6.78,5.94-9.88,7.32-19.65,7.53-2.71,2.39-5.6.37-4.24,5.29.08.29.17.62.29.98,0,.01.01.02.01.03h.01l.89.29,2.91.92.13.05c.09-.01.18-.02.26-.02.25-.03.51-.02.77-.01.03.01.06,0,.1,0,.49.03,1,.07,1.49.03.16-.01.32-.03.5-.04.95-.06,2.04-.06,2.77.46.27.17.48.42.62.75.01.02.01.03.02.05.01.01.01.02.02.03.13,0,.25,0,.38-.01.33-.02.66-.03,1-.03h.45c1.11.08,2.26.14,3.45.17,1.35.03,2.64.03,3.86,0h13.96c1.12-.39,2.31-.61,3.53-.63,5.7-.08,11.33-.66,16.8.22.93-.2,1.92-.29,3-.22,8.62.59,17.23.28,25.82.63h52.99c2.18.13,4.6.16,7.23,0,1.86-.11,3.6-.3,5.2-.54h108.92c-.19-1.49-.41-2.97-.68-4.42-3.53-19.35-13.76-36.19-25.92-51.35l-.01-.01c-2.79-3.47-5.66-6.86-8.6-10.17l-1.81-.9-.35,3.34-.11,1.18c-.02-.04-.04-.06-.08-.09-2.25-2.89-5.46-4.71-8.07-7.11-.48-.44-.96-.89-1.43-1.32-7.31-6.88-13.37-13.62-21.69-19.85-5.82-4.37-12.2-7.86-17.96-12.28-.3,0-.63.04-.92,0-1.33-.23-2.26-.3-2.7-1.81-21.63-6.6-30-14.34-55.11-9.04-.4.09-1.43.44-2.72.9q0,.01-.01.01c-1.42.49-3.16,1.13-4.72,1.65-2.18.73-4.05,1.29-4.28,1.06-.54-2.33.63-1.58,1.69-2.33,2.43-1.74,4.02-2.01,6.43-3.09,4.97-2.22,5.84-3.18,11.74-3.62,6.13-3.01,13.55-1.69,19.88,0,8.87.77,20.92,5.66,28,10.85l.45-.9c1.74,2.23,3.91,2.42,5.88,4.51.29.31.62.59.9.9,2.8-.13,8.94,5.32,11.31,7.22.3.23,1.18,1.04,1.93,1.39.39.19.77.25,1.01-.01.1-.1.18-.25.21-.46-.13-.2-.25-.43-.35-.67-.68-1.8-.68-4.98-.37-8.16.31-3.22.92-6.44,1.36-8.15.99-3.76,12.65-31.35,14.35-31.74,7.06,2.1,16.55,7.63,26.14,11.72h.01c10.05,4.28,20.21,6.99,27.83,2.53,8.38-4.91,4.43-16.09,8.94-20.41,3.01-2.89,11.07,1.68,13.57-5.73v-.01c.09-.25.17-.53.24-.81.2-.76.25-1.54.19-2.31-.15-2-.98-3.98-1.65-5.53-.07-.16-.15-.33-.21-.48-.52-1.21-.88-2.12-.6-2.5.1-.12,2.17-.38,3-1.04,2.71-2.13,4.2-4.04,4.89-5.79.35-.87.49-1.69.48-2.5-.04-4.06-3.97-7.37-5.41-11.19-.15-.44-.28-.87-.37-1.31-.18-.92-.19-1.89.05-2.9.36-1.48,10.41-1.37,13.8-6.72v-9.34c-.36-.79-.75-1.63-1.1-2.6ZM707.65,350.74c1.08,1.72-2.17,16.06-4.86,16.89-.04.01-.07.02-.11.02-1.98.38-13.89-10.44-16.16-12.54-.48-.45-2.86-1.08-2.52-1.97.1-.22.35-.47.85-.71,2.42-1.26,21.48-3.8,22.8-1.69ZM652.13,315.4c1.03.13,3.52,1.17,4.2,2.37.19.34.24.7.06,1.05-.04.06-.08.12-.1.17-.08.09-.35.23-.75.42-3.16,1.42-15.17,5.34-17.84,8.11-.16.17-.3.34-.39.5-.12.03-.25.07-.37.09-.88.21-1.88.41-2.87.71h-.01c-1.31.37-2.58.9-3.45,1.83-.47.5-.82,1.11-.99,1.88,1.17-1.09,3.93-1.15,6.01-1.79.42-.12.82-.28,1.17-.47.7-.38,1.2-.91,1.36-1.71.03-.16.05-.35.05-.54,3.81-1.01,7.87-1.88,11.74-2.7.15-.03.31-.05.47-.06h.01c.92-.07,1.95.11,2.77-.19.37-.16.7-.39.93-.8.14-.21.26-.45.34-.76.3-.03.6.03.9,0,.58-.05,1.31-.08,2.12-.1,2.8-.05,6.61.21,8.73,1v.91l.89,1.81c-.41.05-.86.01-1.3,0-.17-.01-.33-.01-.5,0-5.36.35-6.73-.12-11.44,2.11l-.88.75-3.04,2.56s-.01.01-.02,0c-.26.07-.61-.09-.88,0-1.7-.02-2.68-.4-2.79.68-.03.27-.01.64.09,1.13-.3.04-.62-.06-.91,0-.04,0-.07,0-.11.01-2.01.37-3.91.85-5.73,1.42-11.27,3.5-19.74,10.47-30.89,15.14-.11.05-.17.25-.31.5-.16.32-.42.7-1.03.96-.08.04-.18.08-.27.1-2.36.75-6.25,1.75-6.78-1.02-.05-.25-.06-.54-.06-.85.82.11,1.41.14,1.84.06,1.32-.2.98-1.35.87-3.68-1.92,1.02-3.14-.5-3.83,1.08-.08.19-.15.42-.22.73-.13-.18-.27-.33-.37-.47-1.54-1.79-1.93-1.32-2.13-.35-.17.87-.21,2.14-.8,2.5-.16.09-.33.17-.52.21-1.61.42-3.81-1-3.66.58.04.44.25,1.08.7,2.05-.32.21-.63.42-.97.65-4.49,3.06-10.38,7.56-15.29,11.1-2.82,2.01-5.59,4.28-8.38,6.55-.69.55-1.37,1.12-2.05,1.67-4.5,3.64-9.07,7.2-13.96,9.83l-14.45,10.86c-.4-1.71.94-2.16,1.79-3.17,2.27-2.69,5.61-6.01,8.13-8.59,2.01-2.04,4.14-4.21,6.26-6.33h.08c-.01,0-.03-.02-.04-.04v-.01c1.84-1.83,3.66-3.65,5.46-5.36,2.38-2.28,4.99-4.69,7.71-6.95,2.31-1.92,4.69-3.75,7.04-5.3.2-.14.4-.27.6-.4,1.93-2.22,4.41-4.54,7.28-6.94,12.25-10.18,31.67-21.37,47.4-28.35h.01c4.98-2.21,9.59-4,13.48-5.21.16-.05.32-.11.49-.15,2.34-.71,7.16-2.06,9.4-1.79ZM562.33,280.59c1.25,1.74,1.41,3.69,2.32,4.92.55.74,10.2,8.36,8.51,9.99-.2.19-.44.28-.72.29-3.51.1-13.22-12.58-14.32-14.6-.83-1.53-1.14-2.54-1.1-3.16.13-1.83,3.37-.14,5.31,2.56ZM572.27,302.74l9.02,1.81c0,1.3-.57,2.1-1.42,2.51h-.01c-2.7,1.31-8.26-1.25-8.01-3.46.02-.3.15-.59.42-.86ZM590.33,266.6c1.1-1.13,5.21,3.74,5.33,5.1.08.92-.61,1.73-1.34,2.07-.46.24-.95.28-1.27.05-.26-.2-2.09-4.51-2.58-6.46h-.01c-.08-.33-.14-.6-.13-.76ZM601.99,287.52c-2.69.32-6.73-9.36-7.16-12.1-.07-.35-.06-.6.02-.69,4.61-.65,3.73,3.11,5.03,5.36,1.61,2.76,3.91,3.37,3.58,8.16l8.55,14.48c-.33.3-.72.4-1.16.34-.59-.06-1.23-.4-1.93-.93l-.01-.01c-.41-.32-.86-.72-1.29-1.18l-.05-.05c-3.52-3.71-7.19-11.08-5.58-13.38ZM586.6,284.79c.37.25,2.28,6.75,3.06,8.23,1.48,2.77,4.58,5.5,5.19,8.81-.28.26-.64.31-1.06.19-3.33-.98-10.61-12.66-10.77-16.57-.02-.31.02-.58.09-.78,1.04.14,2.7-.35,3.49.12ZM645.43,306.8c-.17.55-.66.63-1.19.52-.52-.11-1.1-.38-1.47-.56-8.37-3.91-13.9-17.8-23.06-22.11l-9.5-5.29-1.8-1.01c7.92.11,16.64,5.79,22.26,11.16,5.32,5.06,9.12,12.41,14.76,17.29ZM644.54,290.99c-.21-.16-.39-.32-.57-.51-2.7-2.77-2.8-8.08-4.18-11.44-1.09-2.58-4.68-4.99-4.32-8.53.01-.09.02-.19.04-.29,4.01-4.01,11.22,17.67,9.03,20.77ZM631.41,262.1c1.03.92,6.56,5.69,4.99,7.21-.2.19-.42.31-.68.35-2.78.57-8.45-6.63-10.22-7.97-4.7-3.54-14.44-8.03-20.25-8.65-3.46-.36-6.89.24-10.3.42-.33.02-.66.03-1,.04,12.71-5.9,27.59-.1,37.46,8.6ZM589.35,260.98c.01-.2.04-.42.09-.7,10.48-.8,23.51,4.65,31.53,11.38,1.25,1.03,3.04,2.05,2.78,3.97-.11.1-.45.04-.96-.15-4-1.38-18.87-10.14-21.63-11.13-3.3-1.19-6.26-1.44-9.53-2.25-1.38-.33-2.41.66-2.28-1.12ZM573.51,259.48c5.07,3.22,2.05,6.83,2.36,7.11.17.15,1.68-.42,2.78.6,2.17,2.02,2.49,6.61,3.55,9.34.13.35,2.98,4.06,2.95,6.04-.01.59-.29,1.03-.99,1.16-.18.05-.39.07-.62.06-3.52-.11-3.61-2.72-4.58-5.47-.02-.06-.04-.11-.04-.16v-.01c-.23-.96.6-1.53.57-1.62-.66-1.71-3.87-7.54-5.06-9.83-.53-1.01-4.25-5.9-4.63-7.87-.2-1.11.64-1.29,3.71.65ZM519,258.03c.02-.01.05-.02.07-.05,1.78-1.52,3.72-2.79,4.81-3.21,1.49-.58,2.54.15,3.42-.15,1.57-.51,2.58-2.09,4.28-2.35h.02c.13-.03.28-.04.44-.04.03,0,.07,0,.14.01.02,0,.05,0,.07.01.08.01.17.03.29.06.06.01.11.02.18.03.11.02.27.06.45.09.13.04.29.07.45.1.09.02.2.05.34.08.22.05.46.1.71.16.35.08.75.17,1.18.27.39.09.8.19,1.21.3,1.02.24,2.04.49,2.85.7.16.03.31.07.45.1.57.15.99.27,1.13.33.82.29,3.75,3.14,5.43,4.84.41.41.73.74.95.97,2.81,2.93,9.71,10.94,9.98,14.88.08,1.16.07,1.54-.9,1.47-.14-.02-.32-.04-.51-.08-3.89-.69-4.15-5.35-5.84-7.71-2-2.76-6.34-4.18-5.44-8.56-6.21-.11-9.28-5.08-16.73-4.1-2.13.27-11.88,7.93-13.07,6.8.14-1.44,1.78-3.31,3.64-4.95ZM512.6,267.21c.01-.04.02-.09.03-.15.23-.74,5.17-2.05,6.34-2.27,8.76-1.65,20.05,1.1,23.49,10.39-.42.1-.81.11-1.21.03-2.48-.42-4.69-3.72-6.62-4.86-3.93-2.31-11.09-4.16-15.66-3.75-1.12.1-6.96,3.09-6.37.61ZM503.1,281.89c1.47-1.41,3.86-2.37,5.47-2.6.17-.02.31-.03.45-.04.21-.39.45-.72.7-1h.01c2.33-2.57,6.28-1.01,8.79-1.26.88-.08,1.93-1.35,3.59-1.45,1.04-.06,10.45,2.14,11.95,2.6,10.39,3.24,19.35,13.75,28.34,19.56,1.79,1.15,8.65,3.76,8.93,4.17.28.39.3,1.03.13,1.66-.11.37-.29.74-.55,1.05-.21.27-.49.48-.81.61-.25.11-.53.16-.84.13-4.59-.42-19.83-13.62-24.72-16.87-9.65-6.44-19.1-10.72-31-8.3-.25.05-.49.1-.72.16-.1.02-.18.05-.27.08h-.01c-.25.07-.5.13-.75.21-.05.01-.1.02-.14.05-.09.02-.18.05-.27.09-.05,0-.09.02-.14.04-.18.06-.36.13-.53.19-.17.07-.35.13-.52.2-1.9.75-3.53,1.7-5.34,2.49-.29.11-.58.23-.88.34-.43.17-.87.32-1.35.45-.27.08-.52.15-.81.22-.06-1.04.48-1.99,1.29-2.78ZM499.91,290.75c.01-.06.04-.14.08-.21.4-.98,7.51-2.02,9.03-2.27,4.09-.64,8.83-.75,13.09.03,1.69.3,2.51,1.21,3.18,2.69,5.48-1.88,8.36,2.22,12.65,4.51,8.06,4.33,17.81,10.98,26.25,13.96,1.55.54,10.43,1.9,10.78,2.33.2.23-.12,1.95.01,2.68-.31-.02-.62-.03-.94-.03-1.93,0-4.03.34-5.81,0-5.99-1.13-23.8-10.94-29.43-14.84-1.29-.9-2.68-1.05-2.67-3.19-5.28.96-8.86-3.48-12.65-4.52-2.69-.74-11.57-1.22-14.46-.9-1.26.15-10.73,4.19-9.11-.24ZM500.87,308.56c-.26,1.45-1.26,2.28-2.42,3.19-.38.29-.78.6-1.16.92-.59.07-1.25-.1-1.82,0-1.39.26-2.09.64-2.43,1.21-.58.92-.17,2.28-.27,4.21-.27.23-.51.47-.71.74-.09.11-.16.23-.23.36-1.89,3.07-.22,8.51.94,11.55-.08.08-.01.41.02.77.03.55-.04,1.19-.93,1.1-.13-.01-.28-.04-.44-.07-4.49-3.76-4.85-10.21-3.86-15.6.37-2.01,2.93-4.92,5.61-7.22.02-.01.03-.02.04-.03,1.46-1.25,2.95-2.3,4.15-2.94.29-.17.57-.3.83-.4,7.39-2.96,13.61-1.33,20.78-.91,1.07.07,1.85-.25,3.59-.1.29.03.59.05.92.1.57.09,1.25-.09,1.81,0,.21.29.42.66.6,1.08.41,1.01.51,2.18-.6,2.53-.02-.01-.05-.02-.1-.03-.71-.17-4.22.09-5.32.03l-.9-2.7-.89.88-1.83,1.82c-.05,0-.11,0-.15-.01-4.99-.15-5.73-.99-10.68.92l-4.51-2.71c.05.48.03.92-.04,1.31ZM503.61,352.43c.55-.08.99-.23,1.34-.41.96-.49,1.29-1.34,1.7-1.97.39-.6.86-1,2.06-.74.34.07.75.21,1.22.41.2.52.42,1.04.63,1.53,4.17,8.98,13.6,10.5,20.94,4.92.04-.02.06-.05.1-.08.91-.7,1.8-1.52,2.64-2.45.55-.6.66-1.66.78-2.38.06-.3.11-.53.2-.64.07-.08.72-.02,1.4-.33.29-.12.57-.32.83-.63.46-.56.35-1.47.61-2.13.26-.69.9-1.1,2.93-.56,1.3.32,2.01,6.43,1.3,7.15-.08.08-.36.1-.69.12-.47.02-1.06.06-1.49.33-.15.1-.24.31-.32.54-.15.4-.28.92-.6.92-.11.02-.24,0-.37-.04-1-.19-2.37-1.18-3.59-.85-.04.21-.04.47-.03.73.02.69.18,1.48.02,1.97-.08.26-.16.52-.26.76-.91,2.45-2.42,4.37-4.31,5.78-8.98,6.78-26.36,2.09-27.03-11.43,0-.18-.01-.35-.01-.52ZM528.08,381.65c-2.04,1.29-6.08,2.31-6.85,2.39-5.11.57-10.47.42-15.05-1.79-.57-.28-1.12-.59-1.66-.93l14.9.93c1.81.34,8.65-3.25,9.45-2.74.01,0,.02,0,.03.02.28.26.4.53.36.79-.04.46-.51.91-1.18,1.33ZM533.23,378.21c-1.26.93-2.59,1.53-3.42,1.3-.6-.58,1.3-2.96,3.18-4.65,1.37-1.23,2.74-2.09,3.14-1.66.97,1.11-.84,3.5-2.9,5.01ZM535.93,414.5c.05-.28.14-.49.28-.57.59-.43,1.83.03,2.69-.02.55-.04.95-.29.95-1.1,0-.21-.04-.47-.1-.77.54.01,1.07-.01,1.61,0h.19c.13-.17.83-.85,1.34-1.36.19-.18.37-.35.46-.45.48-.44,1.61-.75,2.52-1.32.23-.14.43-.29.62-.48,2.64-2.53,5.05-5.31,7.83-7.66.28-.25.54-.49.82-.69.28-.24.57-.47.86-.68,2.48-3.34,8.39-8.33,11.73-11.31,1.92-1.7,3.94-3.43,6.02-5.17.48-.4.96-.8,1.44-1.2,19.41-16,44.91-32.94,67.35-41.22.14-.06.31-.12.45-.17.52-.19,1.03-.37,1.55-.56,7.51-2.62,19.94-5.81,27.81-6.96,4.25-.63,9.32-1.77,13.44-.37.1.03.2.07.31.11.01.01.08.04.17.11.08.04.15.09.23.14.16.11.37.24.6.39v.02c.14.08.28.19.44.29.13.09.26.18.39.27.13.08.25.17.37.24h.01q.01.02.02.02c.05.06.12.13.21.17.07.07.16.12.26.16.18.11.55.39.96.74.75.63,1.64,1.5,1.74,1.95-.4.09-.8.17-1.21.25-12.64,2.62-25.91,3.95-37.62,9.7-1.13.05-2.63.39-4.32.91-5.08,1.53-11.83,4.61-15.27,6.16-26.67,12.04-52.18,31.34-75.27,48.94-.46.36-.96.76-1.46,1.19-1.31,1.15-2.74,2.51-4.18,3.87-1.44,1.36-2.92,2.73-4.35,3.88-.1.09-.19.17-.28.25-.82.63-1.61,1.2-2.38,1.65.01.06.01.11.01.17-.04,1.1-1.67,2.75-2.91,3.67q-.01.01-.02.01c-.49.36-.91.61-1.16.67-.93.21.28-2.24-1.33-1.8.13.78.12,1.39,0,1.84-.17.64-.56,1.01-1.09,1.19-.85.27-2.09.05-3.44-.34.73-.83.45-3.51.71-4.76ZM669.66,373.72l-.74,2.19c-.18.39-.77,1.6-.9,1.81-.22.35-.59.68-.92,1.03-.15.17-.28.33-.41.51-.01,0-.01.01-.01.01-.23.33-.42.71-.46,1.17-.23-.06-.47.01-.71.01h-.01c-.06,0-.12,0-.19-.01-3.02-.81-5.51-2.2-8.13-2.72-.29-.06-.6.04-.89,0-.46-1.56-1.41-1.53-2.73-1.81-.29-.07-.64.08-.89,0-1.57-1.72-4.12-3.05-6.32-3.61-.29-.08-.64.08-.91,0-1.33-1.69-4.24-1.69-4.51-3.96-.02-.17-.02-.34-.01-.55,1.59-.14,3.3-1.49,4.57-2.26.31-.21.61-.37.86-.45,1.34-.51,5.57-2.1,10.47-3.88h.01c8.66-3.13,19.41-6.8,20.22-6.06-2.45,5.97-4.74,12.09-7.22,18.06l-.17.52ZM634.6,371.41l-11.35,30.67c-.14-.06-.33-.12-.55-.23-4.28-1.83-21.97-9.46-22.41-10.97v-.06c3.73-2.97,32.32-21.03,34.31-19.41ZM569.6,422c-.05.22-.09.45-.14.66-.7,3.69-1.92,7.42-2.61,11.07-.25,1.28-.66,5.26-1.16,8.95v.02c-.01.12-.03.25-.05.36-.28.02-.56.06-.83.08-1.85.22-3.44.73-5.39,1.13l.63.74h.01l.04.04.19.23,3.35.15.84.04.14.01h.01l.64.03c-.12.76-.26,1.48-.39,2.1-.27,1.21-.55,2.05-.84,2.27l-.47-.08-.32-.05-18.99-3.38c-.41-.37-1.57-.54-1.61-1.31-.15-3.65,29.35-33.01,34.12-37.1.36-.3.98-.82,1.77-1.48.89-.73,2-1.65,3.21-2.64.44-.37.89-.74,1.36-1.11,4.38-3.56,9.46-7.56,10.4-7.84,2.1-.61,1.11.85.97,1.88-1.12,8.61-4.18,19.8-5.96,28.83-.42.7-.65,1.18-.95,1.46-.14.14-.31.23-.53.26-.33.07-.77.04-1.42-.07-2.8-.47-14.64-6.24-16.02-5.25ZM656.69,566.51c-2.19,2.94-4.59,5.42-7.15,7.47-.06.04-.1.08-.16.12-24.15,19.17-62.2.74-59.94-33.3.18-2.62.81-5.38,1.82-8.16,7.09-3.88,16.71-10.67,20.05-13.54,1.94-1.67,2.71-3.65,2.92-4,1.16-1.98,2.02-4.06,2.65-6.58.07-.22.12-.43.17-.66.13-.02.26-.04.38-.05v-.01c.27-.02.58-.04.9-.04s.64.02.91.04c.38.04.77.53,1.22.77.18.11.37.16.58.13,1.69-2.77-2.8-5.67-2-7.74.04-.14.11-.26.2-.38.58-.77,1.22-.32,1.74.34v.01c.42.53.77,1.2.97,1.45.23.32.65.56.9.9.14.18-.31,1.13.38,1.77.06.04.12.09.17.12.15.1.39.2.71.31.53.15,1.27.29,2.07.4,1.7.24,3.74.34,4.86.22.38-.04.65-.11.78-.21.38-.29-.08-1.42.07-1.7.41-.77.99-2.05,1.42-2.91.14-.3.29-.55.38-.7.05-.07.5-.01.96-.13.66-.17,1.36-.74,1.01-2.73-.03-.24-.09-.49-.16-.77l1.7.02h.1v.45c.01,1.05.01,2.09.01,3.14v3.63c-.29.22-.54.47-.77.72-.72.78-1.12,1.7-1.03,2.87,25.61,5.54,36.65,37.93,21.18,58.73ZM733.96,502.39c-.13.12-.38.19-.67.19-.65-.02-1.49-.42-1.39-1.34l-8.36-11.82-.4-.58c1.01-.86,10.48,1.4,11.31,2.67.92,1.36.23,10.16-.49,10.88ZM737.57,388.42c-.57.18-1.33.85-1.81.9-3.43.33-7.71-.27-10.84,1.8-5.09.43-11.88,2.81-16.95,4.28-9.65,2.79-19.68,6.33-29.85,10.49-14.43,5.9-29.08,13.03-43.22,20.98-14.11,7.96-27.7,16.73-39.97,25.9v.01h-.01l-.57.42c-.23-.24-.37-.39-.44-.45-.26-.19-.54-.38-.85-.58-2.5-1.63-6.27-3.47-10.31-5.09.11-.08.22-.17.33-.25,15.53-12.19,31.61-23.82,48.88-33.47,7.01-3.92,14.95-6.79,21.59-11.39.3-.07.62.06.9,0,2.34-.56,5.15-1.42,6.32-3.62,4.42-1,8.72-2.26,12.95-3.67,15.66-5.22,30.58-12.33,48.49-14.4,3.14-.36,6.42.97,9.03-1.81.14.25.63.57.91.91-2.93,3.87,1.45,2.25,1.7,2.78.67,1.48-.03,5.21,3.72,5.35.11.25-.13.66,0,.91Z"/><path class="cls-1" d="M617.63,734.86c.03.75-.9,1.48-2.49,2.17-3.3,1.42-9.43,2.66-15.68,3.65h-52.99c-8.59-.35-17.2-.04-25.82-.63-1.08-.07-2.07.02-3,.22-5.47-.88-11.1-.3-16.8-.22-1.22.02-2.41.24-3.53.63h-13.96c-2.04-.1-4.21-.15-6.64-.17h-1.12c-.41,0-.87,0-1.39.01h-.64c-.3.06-.59.11-.88.16-1.61.26-3.13.25-4.49,0-1.97-.37-3.57-1.26-4.46-2.64,0-.01-.01-.02-.02-.03-.09-.15-.32-.5-.51-.98-.35-.82-.62-2-.08-3.13.65-1.38,2.27-2.22,4.13-2.18,9.41-.21,12.4-1.59,18.95-7.53.3-.27,2.7-.64,2.52-1.27l1.28-2.5c2.11-.13,3.52-.87,4.47-2.14q.01,0,.01-.02c1.06-1.39,1.57-3.41,1.88-5.95,1.37-10.85-3.2-23.97-2.52-35.05-8.17-3.42-11.07-2.28-13.48-5.95-.02-.04-.05-.07-.07-.11-.34-.53-.67-1.16-1-1.91-.61-1.36-1.22-3.11-1.94-5.43-8.38-27.19-19.82-75.97-11.38-103.04,1.23-3.95,6.96-13.24,9.59-17.5,2.59-4.19,16.38-21,16.76-22.33.04-.11.07-.25.09-.36,1.14-5.08-5.21-4.94-4.78-8.84v-.01c.02-.13.04-.27.07-.4.68-3.22,4.33-3,5.34-6.44.45-1.5.4-3.72-.63-7.26-.9-3.07-.62-2.65-1.37-6.25-2.27-10.65-4.51-22.08-6.87-33.51l-.02-.14c-2.68-13-5.49-25.97-8.65-37.75-.48-1.76-.88-3.02-1.35-4.01-.3-.62-.62-1.13-1.02-1.58-.97-1.11-2.33-1.87-4.62-3.17-4.88-2.71-4.01-2.87-10.12-3.77-.17-.19-.31-.38-.42-.59-.79-1.41-.44-3.26-.84-4.43.05-.03.08-.06.13-.08v-.01h.01c.54-.38,1.15-.64,1.79-.81,5.32-1.43,13.6,3.19,17.43,2.03.17-.05.34-.11.49-.21.1-.05.18-.1.27-.18h.01c.01,0,.01-.01.02-.01.39-.27.73-.66,1.02-1.11.57-.86,1-1.95,1.34-3.1.59-1.98.99-4.09,1.5-5.32.7-1.67,1.27-4.08,2.05-6.11.26-.72.57-1.4.92-1.99.62-1.06,1.37-1.8,2.38-1.9h.01c.27-.03.56-.01.88.07.25.06.51.16.79.3.39.19.8.46,1.24.81.17.25.31.55.37.87.07.34.1.7.07,1.11v.02c-.21,3.2-3.29,8.15-3.61,11.22,0,.1-.01.22-.01.32-.02.11-.02.21-.02.3.35.35.89.24,1.57-.19.17-.1.35-.23.53-.36.34-.25.71-.55,1.11-.92,2.33-2.05,5.37-5.4,7.88-6.37.43-.18.84-.28,1.24-.29h.01c.25,0,.49.03.71.12.11.02.22.08.32.13.18.08.36.21.51.36.66.62.53,1.51-.05,2.54-.24.44-.56.9-.94,1.37,0,0-.02.01-.02.03-.13.16-.27.33-.42.5-2.49,2.91-6.67,6.28-7.47,8.24-.2.47-.2.86.08,1.14.18-.16.62-.32,1.23-.48.16-.04.32-.08.49-.11h.01c.12-.03.25-.06.37-.08.64-.13,1.35-.24,2.1-.33,2.06-.23,4.36-.29,5.61.11.02,0,.02.02.02.02.78.25,1.16.66.85,1.32v.01c-.07.15-.18.32-.34.51-.06.07-.15.17-.24.27-.6.58-4.81,1.86-8.15,3.5-1.45.7-2.73,1.49-3.48,2.29-.14.18-.27.34-.37.5-.54.9-.84,2.04-.96,3.39.01.02.01.04,0,.06-.61,7.31,4.08,20.18,6.03,25.43.07.21.16.43.25.66,1.1,2.95,2.36,6.19,3.72,9.62,5.54,13.82,12.83,30.49,18.48,41.53,1.5,2.93,3.26,5.96,5.34,8.52,1.09.21,1.66-.03,1.91-.5.04-.09.09-.19.11-.3v-.01c.1-.36.08-.8.02-1.26-.1-.68-.32-1.43-.45-2.01-.98-4.48-6.13-13.06-5.96-16.7.1-2.13,1.34-3.09,2.69-3.59,1.47-.55,3.07-.54,3.39-.91.05-.06.1-.14.14-.23.59-1.24-.6-4.41.19-5.73.22-.36.77-.6,1.5-.77.78-.17,1.78-.26,2.77-.33h.11c.44-.02.89-.04,1.31-.07.86-.05,1.62-.12,2.16-.22h.03c.1-.02.2-.04.28-.07.14-.04.24-.09.32-.14.1-.06.19-.17.27-.29.41-.63.58-1.93.82-3.3.06-.36.12-.73.2-1.1v-.01c.16-.76.36-1.53.65-2.18,0-.01.01-.01.01-.02.07-.18.15-.33.24-.47v-.01c.13-.23.27-.43.44-.59.1-.11.21-.19.32-.28.17-.12.36-.22.57-.28.03-.01.06-.02.09-.02,1.06-.24,3.31.55,5.34,1,.16.05.31.09.48.1h.02c.38.08.74.13,1.07.16.05.02.09.02.14.02.09,0,.18.01.27.01,7.78.09,10.73-2.85,14.4-7.03.18-.2.37-.43.56-.64.06-.09.13-.16.2-.24.94-1.09,1.96-2.25,3.14-3.46l.04-.04c.23-.23,1.25.13,2.01-.35.07-.03.13-.08.19-.13.39-.36.66-.98.65-2.14-.01-.57-.08-1.27-.25-2.13,0-.01-.01-.03-.01-.05-.01-.07-.03-.14-.04-.22l-.47-.02-3.03-.14-1.02-.04h-.01l-.93-.05-.87-1.01c2.24-.46,4-1.06,6.23-1.2.39-.05.78-.06,1.21-.05h.16c.27,0,.55-.01.82-.02.57-.02,1.14-.03,1.7.02.3.03.63.05.96.11.47.06.95.13,1.47.23,3.18.59,7.24,1.85,11.2,3.36.36.14.73.28,1.08.43.06.01.1.03.16.05.16.06.33.14.5.2,4.02,1.63,7.8,3.46,10.31,5.09.31.2.59.39.85.58.01.01.02.01.03.02v.01c.07.06.2.21.4.42.45.49,1.17,1.27,2.1,2.06.45.39.92.79,1.4,1.23.4.36.8.71,1.21,1.1,3.35,3.11,7.09,7.04,10.16,11.23.39.54.77,1.09,1.14,1.64.01,0,.01.02.01.02.64.92,1.22,1.87,1.77,2.81v.01c.22.4.45.8.66,1.2.28.53.53,1.06.77,1.58l.01.02c.87,1.92,1.5,3.83,1.76,5.67.01,0,0,.02,0,.02.04.17.05.32.07.49.02.19.05.38.07.56.06.58.12,1.16.18,1.73.09.92.17,1.81.24,2.69.01.13.02.24.03.35.05.63.1,1.24.13,1.85.02.35.05.7.07,1.04l.02.71c.05.89.07,1.79.08,2.66.01.27.01.53.01.77v.02c0,.66-.01,1.33-.03,1.99-.06,2.02-.22,4.04-.48,6.12-.01.09-.02.18-.04.27-.03.36-.09.74-.14,1.1-.09.64-.2,1.25-.32,1.85-.02.14-.05.3-.08.45v.01c-.08.39-.16.74-.24,1.1-.12.47-.24.94-.38,1.4-.61,2.18-1.41,4.05-2.45,5.84-.2.34-.97,2.32-2.92,3.99-3.01,2.59-11.13,8.36-17.88,12.31-.74.43-1.47.85-2.16,1.23-2.72,1.48-5.05,2.54-6.51,2.8-1.43.25-4.47.64-7.77,1-.28.03-.57.06-.85.09-4.52.48-9.29.87-10.91.72-7.5-.67-13.09-11.76-20.34-11.42-1.35.05-4.34.69-4.4,2-.06,1.37,13.38,18.86,15.35,22.41,5.85,10.59,6.26,22.68,15.21,31.16.39.37.79.74,1.22,1.1.74.63,1.54,1.22,2.4,1.81,4.4,2.96,10.08,2,8.77,6.99l-12.65-1.25c-.78.61,7.92,8.51,6.32,11.3-4.72.76-6.9-3.35-10.09-5.3-.44-.28-.9-.5-1.4-.67-.73-.25-1.53-.38-2.42-.29.41.89.89,1.75,1.36,2.61.32.59.63,1.15.92,1.75.64,1.21,1.17,2.48,1.43,3.88,1.49,7.89-1.4,5.98-4.38,2.22-.37-.45-.72-.92-1.07-1.41-1.77-2.41-3.38-5.15-3.95-6.55-2.44-.72-2.49,2.97-3.41,3.48-9.73,5.45-1.41-10.44-1.05-13.02,1.34-9.74-6.35-18.66-11.31-26.32l-.64-.57c-4.89,7.98-7.65-1.12-12.4.13-3.62.94-7.9,12.1-8.34,15.66-2.4,19.39,14.08,39.08,12.56,64.03-.09,1.47-.58,4.8-1.33,8.74-.21,1.11-.45,2.28-.69,3.46-1.32,6.28-3.11,13.15-4.85,16.43-.54,1.05-1.08,1.73-1.61,1.9-1.59.53-4.21-.13-5.54.78-3.5,2.38-2.14,23.05-1.11,27.63,1.12,4.95,6.28,8.42,6.34,12.64.08,4.97-6.04,9.77-7.69,14.45,19.04.78,38.6-.99,57.57-.05,12.42.62,26.95,4.64,38.5,5.08.41.02.84,0,1.25,0l5.04,3.14Z"/><path d="M428,819.77v-27c0-3.68-.35-7.4-1.23-10.9,0-.01,0-.02-.01-.03-1.22-4.88-3.51-9.32-7.33-12.65l-.07-.07c-12.72-12.6-33.36-7.66-37.32-6.71-12.89,3.09-21.87,10.97-27.5,17.75v-34.87h25.28v-8.26h-26.66c-.74,0-1.33-.59-1.33-1.33v-49.67c-1.4.97-2.73,2.07-3.98,3.29-8.87,8.43-12.12,21.83-12.12,36.53v4.97h-14.69v14.47h14.69v90.13h18.81v-34.45c2.25-3.65,5.81-8.7,11.06-13.9,4-3.95,7.67-7.59,13.7-10.48,10.11-4.86,18.93-3.85,20.62-3.63,3.84.5,7.57.96,10.7,3.99,3.8,3.67,4.42,9.06,4.42,12.69v1.49c-27.91-.15-43.41,9.39-43.41,26.85,0,10.44,7.45,20.73,22.07,20.73,10.29,0,18.05-5.07,22.07-10.74h.45l1.05,9.1h11.93c-.9-4.93-1.2-11.04-1.2-17.3ZM415.33,812.75c0,1.35-.29,2.84-.75,4.18-2.09,6.12-8.06,12.09-17.45,12.09-6.71,0-12.38-4.04-12.38-12.54,0-14.02,16.26-16.55,30.58-16.25v12.52Z"/><path d="M518.01,773.823c7.16,0,12.078,1.646,15.212,3.431l2.982-10.141c-3.577-1.791-10.439-3.729-18.193-3.729-23.568,0-38.786,16.111-38.786,38.336,0,7.101,1.474,13.44,4.189,18.781-.004-.003-.008-.007-.012-.01.321,2.487.869,9.469-3.555,15.357-1.478,1.967-4.003,5.328-7.981,5.48-3.722.142-7.442-2.573-9.51-6.883v-103.277h-13.129v105.9c4.497,8.124,13.134,12.522,21.21,11.049,8.811-1.606,13.009-9.482,13.461-10.364,2.766-5.398,2.307-10.621,1.651-13.633,6.165,9.081,16.514,14.442,29.627,14.442,9.698,0,17.301-2.387,20.732-4.178l-2.235-9.844c-3.729,1.64-8.653,3.577-16.111,3.577-14.319,0-25.062-10.293-25.062-26.999,0-15.06,8.951-27.296,25.511-27.296Z"/><path d="M602.01,819.77v-27c0-14.47-5.37-29.53-27.44-29.53-9.1,0-17.75,2.53-23.72,6.41l3,8.65c5.06-3.28,12.07-5.37,18.78-5.37,14.77,0,16.41,10.74,16.41,16.71v1.49c-27.9-.15-43.4,9.39-43.4,26.85,0,10.44,7.46,20.73,22.07,20.73,10.29,0,18.05-5.07,22.08-10.74h.44l1.06,9.1h11.92c-.9-4.93-1.2-11.04-1.2-17.3ZM589.33,812.75c0,1.35-.29,2.84-.73,4.18-2.1,6.12-8.06,12.09-17.46,12.09-6.71,0-12.38-4.04-12.38-12.54,0-14.02,16.25-16.55,30.57-16.25v12.52Z"/><path d="M635.174,779.046h-.595l-.449-14.167h-11.483c.443,6.71.595,14.022.595,22.523v49.668h12.977v-38.482c0-2.241.298-4.324.595-6.115,1.791-9.844,8.356-16.857,17.604-16.857,1.785,0,3.127.152,4.476.449v-12.382c-1.196-.298-2.241-.443-3.735-.443-8.799,0-16.706,6.115-19.985,15.807Z"/><path d="M729.02,797.25c0-13.28-6.27-34.01-29.84-34.01-21.03,0-33.86,17.15-33.86,38.92s13.28,36.4,35.5,36.4c11.49,0,19.39-2.38,24.03-4.47l-2.25-9.4c-4.92,2.09-10.59,3.73-19.99,3.73-13.13,0-24.46-7.31-24.76-25.06h50.72c.14-1.34.45-3.43.45-6.11ZM716.35,793.96h-38.35c1.04-9.1,6.86-21.33,20.14-21.33,14.76,0,18.34,12.98,18.21,21.33Z"/></svg>